<svg width="92" height="24" viewBox="0 0 92 24" fill="none" xmlns="http://www.w3.org/2000/svg">
<g id="Product=Pinjaman BRI, Enabled=True, Align=Left">
<g id="Group 204">
<g id="PinjamanBRI">
<path d="M0 6.24224H3.62783C4.13361 6.24224 4.61181 6.28709 5.06241 6.37681C5.51302 6.46653 5.90385 6.62353 6.23491 6.84783C6.57516 7.06315 6.84184 7.35921 7.03496 7.73602C7.23727 8.10386 7.33843 8.57039 7.33843 9.13561C7.33843 9.69186 7.24647 10.1584 7.06255 10.5352C6.87863 10.912 6.62574 11.2126 6.30388 11.4369C5.98202 11.6611 5.60038 11.8226 5.15897 11.9213C4.71756 12.011 4.23937 12.0559 3.72439 12.0559H2.15187V15.7702H0V6.24224ZM2.15187 10.2795H3.58645C3.77957 10.2795 3.96349 10.2616 4.13821 10.2257C4.32213 10.1898 4.48306 10.1315 4.621 10.0507C4.76814 9.96101 4.88309 9.84438 4.96585 9.70083C5.05782 9.54831 5.1038 9.3599 5.1038 9.13561C5.1038 8.89337 5.04402 8.70048 4.92447 8.55694C4.81412 8.40442 4.66698 8.28778 4.48306 8.20704C4.30834 8.12629 4.11062 8.07695 3.88992 8.05901C3.66921 8.03209 3.45771 8.01863 3.25539 8.01863H2.15187V10.2795Z" fill="#DC590E"/>
<path d="M8.45413 9.22981H10.5232V15.7702H8.45413V9.22981ZM8.2886 7.17081C8.2886 6.84783 8.40355 6.57419 8.63345 6.3499C8.87255 6.11663 9.15763 6 9.48868 6C9.81974 6 10.1002 6.11663 10.3301 6.3499C10.5692 6.57419 10.6888 6.84783 10.6888 7.17081C10.6888 7.49379 10.5692 7.77191 10.3301 8.00518C10.1002 8.22947 9.81974 8.34161 9.48868 8.34161C9.15763 8.34161 8.87255 8.22947 8.63345 8.00518C8.40355 7.77191 8.2886 7.49379 8.2886 7.17081Z" fill="#DC590E"/>
<path d="M12.0098 9.22981H13.9961V10.118H14.0237C14.0881 9.99241 14.18 9.8668 14.2996 9.7412C14.4191 9.6156 14.5617 9.50345 14.7272 9.40476C14.8927 9.30607 15.0812 9.22533 15.2927 9.16253C15.5042 9.09972 15.7342 9.06832 15.9824 9.06832C16.5066 9.06832 16.9296 9.14907 17.2515 9.31056C17.5734 9.46308 17.8216 9.6784 17.9964 9.95652C18.1803 10.2346 18.3044 10.5621 18.3688 10.9389C18.4332 11.3157 18.4654 11.7239 18.4654 12.1636V15.7702H16.3963V12.5673C16.3963 12.3789 16.3871 12.186 16.3687 11.9886C16.3595 11.7823 16.3181 11.5939 16.2445 11.4234C16.1802 11.2529 16.0744 11.1139 15.9273 11.0062C15.7893 10.8986 15.587 10.8447 15.3203 10.8447C15.0536 10.8447 14.8375 10.8941 14.672 10.9928C14.5065 11.0825 14.3777 11.2081 14.2858 11.3696C14.203 11.5221 14.1478 11.697 14.1202 11.8944C14.0927 12.0918 14.0789 12.2981 14.0789 12.5135V15.7702H12.0098V9.22981Z" fill="#DC590E"/>
<path d="M22.0273 16.2547C22.0273 16.6763 21.9859 17.0531 21.9031 17.3851C21.8203 17.726 21.6824 18.0131 21.4893 18.2464C21.2962 18.4886 21.0387 18.6725 20.7168 18.7981C20.4042 18.9327 20.0133 19 19.5443 19C19.388 19 19.2271 18.991 19.0615 18.9731C18.896 18.9641 18.7351 18.9372 18.5787 18.8923L18.6891 17.1025C18.8546 17.1832 19.0339 17.2236 19.2271 17.2236C19.4018 17.2236 19.5397 17.1787 19.6409 17.089C19.742 16.9993 19.8156 16.8872 19.8616 16.7526C19.9076 16.618 19.9352 16.4745 19.9443 16.3219C19.9535 16.1694 19.9581 16.0304 19.9581 15.9048V9.22981H22.0273V16.2547ZM19.7926 7.17081C19.7926 6.84783 19.9076 6.57419 20.1375 6.3499C20.3766 6.11663 20.6616 6 20.9927 6C21.3238 6 21.6042 6.11663 21.8341 6.3499C22.0732 6.57419 22.1928 6.84783 22.1928 7.17081C22.1928 7.49379 22.0732 7.77191 21.8341 8.00518C21.6042 8.22947 21.3238 8.34161 20.9927 8.34161C20.6616 8.34161 20.3766 8.22947 20.1375 8.00518C19.9076 7.77191 19.7926 7.49379 19.7926 7.17081Z" fill="#DC590E"/>
<path d="M27.721 14.9493H27.6934C27.4635 15.2992 27.1554 15.5504 26.7692 15.7029C26.3921 15.8554 25.9921 15.9317 25.5691 15.9317C25.2564 15.9317 24.953 15.8868 24.6587 15.7971C24.3736 15.7164 24.1207 15.5908 23.9 15.4203C23.6793 15.2498 23.5046 15.039 23.3758 14.7878C23.2471 14.5366 23.1827 14.245 23.1827 13.913C23.1827 13.5362 23.2517 13.2177 23.3896 12.9576C23.5368 12.6974 23.7299 12.4821 23.969 12.3116C24.2173 12.1411 24.4977 12.011 24.8104 11.9213C25.1231 11.8226 25.4449 11.7509 25.776 11.706C26.1162 11.6611 26.4519 11.6342 26.783 11.6253C27.1232 11.6163 27.4359 11.6118 27.721 11.6118C27.721 11.2529 27.5876 10.9703 27.3209 10.764C27.0634 10.5487 26.7554 10.441 26.3967 10.441C26.0565 10.441 25.7438 10.5128 25.4587 10.6563C25.1829 10.7909 24.9346 10.9793 24.7139 11.2215L23.6103 10.118C23.9966 9.76812 24.4472 9.50794 24.9621 9.33747C25.4771 9.15804 26.0105 9.06832 26.5623 9.06832C27.1692 9.06832 27.6658 9.14458 28.052 9.2971C28.4474 9.44065 28.7601 9.65597 28.99 9.94306C29.2291 10.2302 29.3946 10.5845 29.4866 11.0062C29.5786 11.4189 29.6245 11.8989 29.6245 12.4462V15.7702H27.721V14.9493ZM27.2106 12.9037C27.0542 12.9037 26.8565 12.9127 26.6174 12.9306C26.3875 12.9396 26.1622 12.9755 25.9415 13.0383C25.73 13.1011 25.5461 13.1953 25.3898 13.3209C25.2426 13.4465 25.1691 13.6215 25.1691 13.8458C25.1691 14.088 25.2748 14.2674 25.4863 14.3841C25.6978 14.5007 25.9185 14.559 26.1484 14.559C26.3507 14.559 26.5439 14.5321 26.7278 14.4783C26.9209 14.4244 27.091 14.3482 27.2382 14.2495C27.3853 14.1508 27.5002 14.0252 27.583 13.8727C27.675 13.7202 27.721 13.5407 27.721 13.3344V12.9037H27.2106Z" fill="#DC590E"/>
<path d="M30.9227 9.22981H32.909V10.118H32.9366C33.001 9.99241 33.0929 9.8668 33.2125 9.7412C33.332 9.6156 33.4746 9.50345 33.6401 9.40476C33.8056 9.30607 33.9942 9.22533 34.2057 9.16253C34.4172 9.09972 34.6471 9.06832 34.8954 9.06832C35.3644 9.06832 35.7782 9.16253 36.1368 9.35093C36.5047 9.53934 36.7805 9.8354 36.9645 10.2391C37.2036 9.81746 37.4932 9.51691 37.8335 9.33747C38.1737 9.15804 38.5922 9.06832 39.0888 9.06832C39.5394 9.06832 39.9164 9.14458 40.2199 9.2971C40.5325 9.44065 40.7762 9.64251 40.9509 9.90269C41.1349 10.1539 41.2636 10.4545 41.3372 10.8043C41.4199 11.1453 41.4613 11.5131 41.4613 11.9079V15.7702H39.3922V11.9617C39.3922 11.6567 39.3232 11.3965 39.1853 11.1812C39.0566 10.9569 38.8221 10.8447 38.4818 10.8447C38.2427 10.8447 38.0404 10.8851 37.8749 10.9658C37.7185 11.0376 37.5898 11.1408 37.4886 11.2754C37.3967 11.4099 37.3277 11.5669 37.2817 11.7464C37.2449 11.9258 37.2266 12.1142 37.2266 12.3116V15.7702H35.1575V12.3116C35.1575 12.195 35.1529 12.0514 35.1437 11.881C35.1345 11.7105 35.1023 11.549 35.0471 11.3965C34.9919 11.244 34.9 11.1139 34.7712 11.0062C34.6517 10.8986 34.4723 10.8447 34.2332 10.8447C33.9666 10.8447 33.7505 10.8941 33.5849 10.9928C33.4194 11.0825 33.2907 11.2081 33.1987 11.3696C33.1159 11.5221 33.0608 11.697 33.0332 11.8944C33.0056 12.0918 32.9918 12.2981 32.9918 12.5135V15.7702H30.9227V9.22981Z" fill="#DC590E"/>
<path d="M47.1323 14.9493H47.1047C46.8748 15.2992 46.5667 15.5504 46.1805 15.7029C45.8035 15.8554 45.4034 15.9317 44.9804 15.9317C44.6678 15.9317 44.3643 15.8868 44.07 15.7971C43.7849 15.7164 43.5321 15.5908 43.3113 15.4203C43.0906 15.2498 42.9159 15.039 42.7872 14.7878C42.6584 14.5366 42.5941 14.245 42.5941 13.913C42.5941 13.5362 42.663 13.2177 42.801 12.9576C42.9481 12.6974 43.1412 12.4821 43.3803 12.3116C43.6286 12.1411 43.9091 12.011 44.2218 11.9213C44.5344 11.8226 44.8563 11.7509 45.1873 11.706C45.5276 11.6611 45.8632 11.6342 46.1943 11.6253C46.5345 11.6163 46.8472 11.6118 47.1323 11.6118C47.1323 11.2529 46.999 10.9703 46.7323 10.764C46.4748 10.5487 46.1667 10.441 45.8081 10.441C45.4678 10.441 45.1551 10.5128 44.8701 10.6563C44.5942 10.7909 44.3459 10.9793 44.1252 11.2215L43.0217 10.118C43.4079 9.76812 43.8585 9.50794 44.3735 9.33747C44.8885 9.15804 45.4218 9.06832 45.9736 9.06832C46.5805 9.06832 47.0771 9.14458 47.4633 9.2971C47.8588 9.44065 48.1714 9.65597 48.4013 9.94306C48.6404 10.2302 48.806 10.5845 48.8979 11.0062C48.9899 11.4189 49.0359 11.8989 49.0359 12.4462V15.7702H47.1323V14.9493ZM46.6219 12.9037C46.4656 12.9037 46.2679 12.9127 46.0288 12.9306C45.7989 12.9396 45.5736 12.9755 45.3529 13.0383C45.1414 13.1011 44.9574 13.1953 44.8011 13.3209C44.654 13.4465 44.5804 13.6215 44.5804 13.8458C44.5804 14.088 44.6862 14.2674 44.8977 14.3841C45.1092 14.5007 45.3299 14.559 45.5598 14.559C45.7621 14.559 45.9552 14.5321 46.1391 14.4783C46.3322 14.4244 46.5024 14.3482 46.6495 14.2495C46.7966 14.1508 46.9116 14.0252 46.9944 13.8727C47.0863 13.7202 47.1323 13.5407 47.1323 13.3344V12.9037H46.6219Z" fill="#DC590E"/>
<path d="M50.334 9.22981H52.3204V10.118H52.3479C52.4123 9.99241 52.5043 9.8668 52.6238 9.7412C52.7434 9.6156 52.8859 9.50345 53.0514 9.40476C53.217 9.30607 53.4055 9.22533 53.617 9.16253C53.8285 9.09972 54.0584 9.06832 54.3067 9.06832C54.8309 9.06832 55.2539 9.14907 55.5758 9.31056C55.8976 9.46308 56.1459 9.6784 56.3206 9.95652C56.5046 10.2346 56.6287 10.5621 56.6931 10.9389C56.7574 11.3157 56.7896 11.7239 56.7896 12.1636V15.7702H54.7205V12.5673C54.7205 12.3789 54.7113 12.186 54.6929 11.9886C54.6837 11.7823 54.6424 11.5939 54.5688 11.4234C54.5044 11.2529 54.3987 11.1139 54.2515 11.0062C54.1136 10.8986 53.9113 10.8447 53.6446 10.8447C53.3779 10.8447 53.1618 10.8941 52.9963 10.9928C52.8307 11.0825 52.702 11.2081 52.61 11.3696C52.5273 11.5221 52.4721 11.697 52.4445 11.8944C52.4169 12.0918 52.4031 12.2981 52.4031 12.5135V15.7702H50.334V9.22981Z" fill="#DC590E"/>
</g>
<g id="PinjamanBRI_2">
<path d="M58.3779 6H64.0843C65.0353 6 65.7643 6.23278 66.2713 6.69833C66.7827 7.16388 67.0384 7.74028 67.0384 8.42752C67.0384 9.00392 66.8567 9.49829 66.4933 9.91064C66.2511 10.1855 65.8967 10.4028 65.4301 10.5624C66.1389 10.7309 66.6593 11.0213 66.9913 11.4337C67.3277 11.8416 67.496 12.3559 67.496 12.9766C67.496 13.4821 67.3771 13.9366 67.1393 14.34C66.9016 14.7435 66.5763 15.0628 66.1636 15.2977C65.9079 15.4441 65.5221 15.5505 65.0062 15.617C64.3198 15.7057 63.8645 15.75 63.6402 15.75H58.3779V6ZM61.4532 9.82418H62.7788C63.2543 9.82418 63.5841 9.74437 63.768 9.58475C63.9564 9.4207 64.0506 9.18571 64.0506 8.87978C64.0506 8.59601 63.9564 8.37432 63.768 8.2147C63.5841 8.05508 63.2611 7.97527 62.799 7.97527H61.4532V9.82418ZM61.4532 13.655H63.0076C63.5325 13.655 63.9026 13.5641 64.1179 13.3823C64.3333 13.1961 64.4409 12.9478 64.4409 12.6374C64.4409 12.3492 64.3333 12.1187 64.1179 11.9458C63.9071 11.7684 63.5347 11.6797 63.0009 11.6797H61.4532V13.655Z" fill="#002179"/>
<path d="M69.1379 15.75V6H74.2184C75.1605 6 75.8805 6.07981 76.3785 6.23943C76.8765 6.39905 77.278 6.69611 77.583 7.13063C77.8881 7.56071 78.0406 8.08612 78.0406 8.70686C78.0406 9.24778 77.924 9.71555 77.6907 10.1102C77.4574 10.5003 77.1366 10.8174 76.7284 11.0612C76.4682 11.2164 76.1116 11.345 75.6585 11.447C76.0218 11.5667 76.2865 11.6864 76.4525 11.8061C76.5647 11.8859 76.7262 12.0566 76.937 12.3182C77.1523 12.5798 77.2959 12.7815 77.3677 12.9234L78.8414 15.75H75.396L73.7676 12.7705C73.5612 12.3847 73.3773 12.1342 73.2158 12.0189C72.996 11.8682 72.747 11.7928 72.4688 11.7928H72.1997V15.75H69.1379ZM72.1997 9.95055H73.4849C73.624 9.95055 73.8932 9.90621 74.2924 9.81753C74.4943 9.77763 74.6581 9.67565 74.7837 9.5116C74.9138 9.34754 74.9788 9.15911 74.9788 8.94628C74.9788 8.63148 74.8779 8.38984 74.676 8.22135C74.4741 8.05287 74.0951 7.96862 73.5388 7.96862H72.1997V9.95055Z" fill="#002179"/>
<path d="M79.945 6H83V15.75H79.945V6Z" fill="#002179"/>
</g>
</g>
</g>
</svg>
