<svg width="92" height="24" viewBox="0 0 92 24" fill="none" xmlns="http://www.w3.org/2000/svg">
<g id="Product=Simpedes UMi, Enabled=True, Align=Left">
<g id="Group">
<g id="Group_2">
<g id="Group_3">
<g id="Group_4">
<path id="Vector" d="M1.06462 2.87146H0V2.27832H2.87089V2.87146H1.80627V6.03084H1.06462V2.87146Z" fill="#0E1D7A"/>
</g>
<g id="Group_5">
<g id="Group_6">
<path id="Vector_2" d="M2.67954 3.41032C2.95467 3.28322 3.3255 3.19849 3.63053 3.19849C4.46189 3.19849 4.80879 3.54953 4.80879 4.36661V4.7237C4.80879 5.00212 4.81477 5.21395 4.82075 5.41974C4.82673 5.62552 4.83271 5.81315 4.85066 6.03103H4.22265C4.19872 5.88578 4.19873 5.7042 4.19274 5.61947H4.18078C4.01929 5.92209 3.66043 6.09761 3.33746 6.09761C2.85299 6.09761 2.38049 5.80104 2.38049 5.27448C2.38049 4.86291 2.57787 4.61476 2.84701 4.48161C3.12214 4.34845 3.46904 4.32424 3.76809 4.32424H4.16284C4.16284 3.87636 3.96546 3.72505 3.54679 3.72505C3.24176 3.72505 2.94271 3.84005 2.70347 4.02162L2.67954 3.41032ZM3.51091 5.565C3.72622 5.565 3.89967 5.46816 4.01331 5.31684C4.12695 5.16553 4.16284 4.9658 4.16284 4.75397H3.85183C3.53483 4.75397 3.06233 4.80844 3.06233 5.23211C3.06233 5.4621 3.2597 5.565 3.51091 5.565Z" fill="#0E1D7A"/>
</g>
</g>
<g id="Group_7">
<g id="Group_8">
<path id="Vector_3" d="M5.37695 2H6.0887V3.616H6.10066C6.29803 3.3497 6.54923 3.19839 6.92006 3.19839C7.7574 3.19839 8.06842 3.87626 8.06842 4.63887C8.06842 5.39543 7.76338 6.09751 6.92006 6.09751C6.61503 6.09751 6.28607 5.98857 6.08271 5.692H6.07075V6.03093H5.37695V2ZM6.72268 5.53463C7.1892 5.53463 7.32079 5.02017 7.32079 4.63887C7.32079 4.26967 7.19519 3.76126 6.72867 3.76126C6.27411 3.76126 6.0887 4.25757 6.0887 4.63887C6.09468 5.03228 6.25018 5.53463 6.72268 5.53463Z" fill="#0E1D7A"/>
</g>
</g>
<g id="Group_9">
<path id="Vector_4" d="M10.9991 6.03086H10.3232V5.65561H10.3113C10.09 5.92192 9.78494 6.09744 9.41412 6.09744C8.76817 6.09744 8.48706 5.63746 8.48706 5.008V3.26489H9.1988V4.74169C9.1988 5.08063 9.20478 5.53456 9.65934 5.53456C10.1737 5.53456 10.2874 4.97169 10.2874 4.61459V3.26489H10.9991V6.03086Z" fill="#0E1D7A"/>
</g>
<g id="Group_10">
<path id="Vector_5" d="M11.5972 3.26506H12.273V3.64032H12.285C12.5063 3.32559 12.8113 3.19849 13.1821 3.19849C13.8281 3.19849 14.1152 3.65847 14.1152 4.28188V6.03103H13.4034V4.55424C13.4034 4.2153 13.3975 3.76136 12.9429 3.76136C12.4285 3.76136 12.3149 4.32424 12.3149 4.68134V6.03709H11.6031V3.26506H11.5972Z" fill="#0E1D7A"/>
</g>
<g id="Group_11">
<g id="Group_12">
<path id="Vector_6" d="M17.2254 3.26487V5.76453C17.2254 6.51504 16.9263 7.22923 15.778 7.22923C15.4969 7.22923 15.1739 7.18686 14.833 7.0416L14.8928 6.4303C15.1141 6.5453 15.467 6.6724 15.6883 6.6724C16.4778 6.6724 16.5137 6.07321 16.5137 5.59506H16.5017C16.3701 5.83111 16.0531 6.03689 15.6524 6.03689C14.8449 6.03689 14.5339 5.38323 14.5339 4.63878C14.5339 3.97301 14.8749 3.20435 15.6943 3.20435C16.0531 3.20435 16.3342 3.32539 16.5316 3.64617H16.5436V3.26487H17.2254ZM16.5137 4.61457C16.5137 4.14248 16.3342 3.75512 15.9215 3.75512C15.4371 3.75512 15.2816 4.203 15.2816 4.63272C15.2816 5.00798 15.4789 5.47402 15.8856 5.47402C16.3342 5.47402 16.5137 5.08061 16.5137 4.61457Z" fill="#0E1D7A"/>
</g>
</g>
<g id="Group_13">
<g id="Group_14">
<path id="Vector_7" d="M17.9491 3.41032C18.2242 3.28322 18.595 3.19849 18.9001 3.19849C19.7314 3.19849 20.0783 3.54953 20.0783 4.36661V4.7237C20.0783 5.00212 20.0843 5.21395 20.0903 5.41974C20.0963 5.63157 20.1082 5.8192 20.1202 6.03709H19.4922C19.4623 5.89183 19.4623 5.71025 19.4563 5.62552H19.4443C19.2769 5.9342 18.924 6.10366 18.601 6.10366C18.1165 6.10366 17.644 5.80709 17.644 5.28053C17.644 4.86896 17.8414 4.62081 18.1106 4.48766C18.3797 4.35451 18.7326 4.3303 19.0316 4.3303H19.4264C19.4264 3.88241 19.229 3.7311 18.8103 3.7311C18.5053 3.7311 18.2063 3.8461 17.967 4.02767L17.9491 3.41032ZM18.7804 5.565C19.0017 5.565 19.1692 5.46816 19.2828 5.31685C19.3965 5.15948 19.4324 4.95975 19.4324 4.74791H19.1273C18.8044 4.74791 18.3378 4.80239 18.3378 5.22606C18.3319 5.4621 18.5292 5.565 18.7804 5.565Z" fill="#0E1D7A"/>
</g>
</g>
<g id="Group_15">
<path id="Vector_8" d="M20.6465 3.26506H21.3223V3.64032H21.3343C21.5556 3.32559 21.8606 3.19849 22.2315 3.19849C22.8774 3.19849 23.1585 3.65847 23.1585 4.28188V6.03103H22.4468V4.55424C22.4468 4.2153 22.4408 3.76136 21.9862 3.76136C21.4719 3.76136 21.3582 4.32424 21.3582 4.68134V6.03709H20.6465V3.26506Z" fill="#0E1D7A"/>
</g>
<g id="Group_16">
<g id="Group_17">
<path id="Vector_9" d="M25.1682 2.27832H26.4661C26.9446 2.27832 27.6623 2.41753 27.6623 3.24066C27.6623 3.68854 27.3633 3.99722 26.9266 4.0759V4.088C27.429 4.13642 27.7759 4.48141 27.7759 4.9414C27.7759 5.88558 26.9386 6.02479 26.4721 6.02479H25.1742V2.27832H25.1682ZM25.9099 3.79749H26.2149C26.5259 3.79749 26.9147 3.72486 26.9147 3.3375C26.9147 2.90172 26.5379 2.87146 26.1969 2.87146H25.9099V3.79749ZM25.9099 5.4377H26.2627C26.6096 5.4377 27.0283 5.34691 27.0283 4.91719C27.0283 4.42694 26.6336 4.35431 26.2627 4.35431H25.9099V5.4377Z" fill="#0E1D7A"/>
</g>
</g>
<g id="Group_18">
<g id="Group_19">
<path id="Vector_10" d="M28.2125 2.27837H29.014C29.8095 2.27837 30.7604 2.25416 30.7604 3.29518C30.7604 3.73701 30.4674 4.10016 29.9949 4.16673V4.17884C30.1982 4.197 30.3119 4.39673 30.3896 4.5662L30.9817 6.03089H30.1504L29.7018 4.85671C29.6001 4.5783 29.5044 4.46936 29.1874 4.46936H28.9482V6.02484H28.2006V2.27837H28.2125ZM28.9601 3.88227H29.2054C29.5702 3.88227 29.9949 3.8278 29.9949 3.36176C29.9949 2.90782 29.5822 2.87151 29.2054 2.87151H28.9601V3.88227Z" fill="#0E1D7A"/>
</g>
</g>
<g id="Group_20">
<path id="Vector_11" d="M32.0689 2.27832H31.3286V6.03084H32.0689V2.27832Z" fill="#0E1D7A"/>
</g>
<g id="Group_21">
<path id="Vector_12" d="M0.281108 15.2549C0.87323 15.5757 1.69263 15.8299 2.63763 15.8299C3.36134 15.8299 4.04915 15.6786 4.04915 14.9825C4.04915 13.3665 0 14.3894 0 11.23C0 9.14193 2.01561 8.573 3.73216 8.573C4.55754 8.573 5.36498 8.69405 5.94514 8.89378L5.79561 10.6853C5.20349 10.4129 4.54558 10.2858 3.89365 10.2858C3.31947 10.2858 2.35652 10.3343 2.35652 11.0969C2.35652 12.501 6.40568 11.5569 6.40568 14.686C6.40568 16.9314 4.5396 17.5427 2.63763 17.5427C1.84216 17.5427 0.843325 17.4156 0.0837343 17.1675L0.281108 15.2549Z" fill="#0E1D7A"/>
</g>
<g id="Group_22">
<g id="Group_23">
<path id="Vector_13" d="M10.1139 9.86824H7.90686V8.22803H10.1139V9.86824ZM7.90686 10.9214H10.1139V17.3914H7.90686V10.9214Z" fill="#0E1D7A"/>
</g>
</g>
<g id="Group_24">
<path id="Vector_14" d="M11.7467 10.9213H13.7563V12.1137H13.7803C14.2228 11.1816 15.108 10.77 16.1129 10.77C17.022 10.77 17.7696 11.1695 18.1165 12.0108C18.6309 11.1392 19.4802 10.77 20.3893 10.77C22.2314 10.77 22.6501 11.8231 22.6501 13.5784V17.3914H20.4431V13.9112C20.4431 13.1789 20.1859 12.6342 19.5579 12.6342C18.7744 12.6342 18.3079 13.2697 18.3079 14.6617V17.3914H16.0889V13.9112C16.0889 13.1789 15.8317 12.6342 15.2037 12.6342C14.4202 12.6342 13.9537 13.2697 13.9537 14.6617V17.3914H11.7467V10.9213Z" fill="#0E1D7A"/>
</g>
<g id="Group_25">
<g id="Group_26">
<path id="Vector_15" d="M23.9719 10.9213H26.0115V12.0895H26.0354C26.478 11.1816 27.411 10.77 28.4158 10.77C30.1862 10.77 31.1551 12.4708 31.1551 14.0383C31.1551 15.9509 30.1384 17.5427 28.2304 17.5427C27.4589 17.5427 26.6215 17.2583 26.2088 16.4835H26.1849V20H23.9719V10.9213ZM27.5306 12.4889C26.7232 12.4889 26.1789 13.2092 26.1789 14.1776C26.1789 15.1217 26.795 15.8299 27.5306 15.8299C28.368 15.8299 28.8704 15.1217 28.8704 14.0868C28.8704 13.2334 28.3919 12.4889 27.5306 12.4889Z" fill="#0E1D7A"/>
</g>
</g>
<path id="Vector_16" d="M34.1457 14.8071C34.2713 15.7028 34.9412 16.0478 36.0238 16.0478C36.6278 16.0478 37.3157 15.9086 37.9736 15.5515V17.1312C37.2618 17.4157 36.4484 17.5428 35.629 17.5428C33.5177 17.5428 31.9088 16.2899 31.9088 14.1534C31.9088 12.0169 33.3443 10.7761 35.3359 10.7761C37.7044 10.7761 38.5657 12.4769 38.5657 14.4015V14.8131H34.1457V14.8071ZM36.574 13.5421C36.574 12.7976 36.2331 12.1863 35.3479 12.1863C34.5464 12.1863 34.1696 12.7976 34.1218 13.5421H36.574Z" fill="#F84400"/>
<g id="Group_27">
<g id="Group_28">
<path id="Vector_17" d="M46.5921 17.3913H44.5526V16.2353H44.5287C44.2476 16.9555 43.3504 17.5365 42.3337 17.5365C40.4317 17.5365 39.4149 15.9447 39.4149 14.0322C39.4149 12.4404 40.3838 10.7638 42.1482 10.7638C43.0334 10.7638 43.7811 10.9999 44.3433 11.7443H44.3672V8.06445H46.5921V17.3913ZM43.0334 15.8298C43.7691 15.8298 44.3851 15.1216 44.3851 14.1774C44.3851 13.1969 43.8469 12.4888 43.0334 12.4888C42.1722 12.4888 41.6937 13.2333 41.6937 14.0927C41.6937 15.1216 42.1961 15.8298 43.0334 15.8298Z" fill="#0E1D7A"/>
</g>
</g>
<g id="Group_29">
<g id="Group_30">
<path id="Vector_18" d="M49.8399 14.8071C49.9655 15.7028 50.6414 16.0478 51.718 16.0478C52.3221 16.0478 53.0099 15.9086 53.6738 15.5515V17.1312C52.962 17.4157 52.1486 17.5428 51.3292 17.5428C49.2179 17.5428 47.609 16.2899 47.609 14.1534C47.609 12.0169 49.0445 10.7761 51.0361 10.7761C53.4046 10.7761 54.2659 12.4769 54.2659 14.4015V14.8131H49.8399V14.8071ZM52.2742 13.5421C52.2742 12.7976 51.9273 12.1863 51.0481 12.1863C50.2526 12.1863 49.8698 12.7976 49.822 13.5421H52.2742Z" fill="#0E1D7A"/>
</g>
</g>
<g id="Group_31">
<path id="Vector_19" d="M55.2945 15.606C55.8089 15.8299 56.5685 16.0539 57.37 16.0539C57.8245 16.0539 58.2671 15.9812 58.2671 15.5334C58.2671 14.4379 55.1271 15.2126 55.1271 12.8763C55.1271 11.3874 56.5745 10.7761 57.8544 10.7761C58.614 10.7761 59.3915 10.8609 60.1033 11.1514L59.9298 12.7069C59.4633 12.4224 58.7635 12.2711 58.2133 12.2711C57.7348 12.2711 57.1965 12.3558 57.1965 12.719C57.1965 13.7237 60.4861 12.9308 60.4861 15.3881C60.4861 17.113 58.9549 17.5488 57.5015 17.5488C56.5087 17.5488 55.8328 17.4459 55.1809 17.2401L55.2945 15.606Z" fill="#0E1D7A"/>
</g>
</g>
</g>
<g id="Group_32">
<g id="Group_33">
<g id="Group_34">
<g id="Group_35">
<path id="Vector_20" d="M72.1551 14.3229C72.1551 16.6894 70.6359 17.7547 68.405 17.7547C66.1741 17.7547 64.6549 16.6894 64.6549 14.3229V8.96045H66.9337V13.9416C66.9337 15.0795 67.2387 16.0479 68.405 16.0479C69.5713 16.0479 69.8763 15.0795 69.8763 13.9416V8.96045H72.1551V14.3229Z" fill="#0E1D7A"/>
<path id="Vector_21" d="M73.0762 8.96045H76.6648L78.477 14.7103H78.501L80.3969 8.96045H83.854V17.6094H81.623L81.6589 10.9638H81.635L79.4579 17.6094H77.3646L75.2832 10.9638H75.2592L75.3071 17.6094H73.0762V8.96045Z" fill="#0E1D7A"/>
<path id="Vector_22" d="M87 10.0983H84.793V8.46411H87V10.0983ZM84.7989 11.1514H87.0059V17.6094H84.7989V11.1514Z" fill="#0E1D7A"/>
</g>
</g>
</g>
</g>
</g>
</g>
</svg>
