<svg width="92" height="24" viewBox="0 0 92 24" fill="none" xmlns="http://www.w3.org/2000/svg">
<g id="Product=Pegadaian, Enabled=True, Align=Left">
<g id="Group 160">
<path id="Vector" opacity="0.918" fill-rule="evenodd" clip-rule="evenodd" d="M29.2584 2.21869C29.2567 2.20289 29.247 2.19293 29.2292 2.18942C29.2032 2.21342 29.1936 2.24268 29.1999 2.27722C29.0796 2.39633 28.9334 2.4452 28.7615 2.42354C28.3129 2.40365 28.0597 2.16952 28.0016 1.72118C28.103 1.13676 28.4441 0.907612 29.0246 1.03346C29.4198 1.2547 29.5417 1.58159 29.39 2.01384C29.3599 2.09402 29.316 2.16221 29.2584 2.21869Z" fill="#004D43"/>
<path id="Vector_2" opacity="0.937" fill-rule="evenodd" clip-rule="evenodd" d="M3.27368 1.25309C3.40319 1.30782 3.52984 1.37132 3.65366 1.44331C3.7364 1.49219 3.8046 1.5554 3.85826 1.63353C3.85826 1.69207 3.88749 1.72133 3.94595 1.72133C4.09987 1.81703 4.19729 1.95369 4.23824 2.13104C4.23923 2.23991 4.27819 2.3277 4.35515 2.39443C4.39672 2.54661 4.42107 2.70259 4.42823 2.86267C4.43796 2.8334 4.44772 2.80414 4.45746 2.77488C4.44238 3.07747 4.41315 3.37978 4.36977 3.68209C4.33575 3.82754 4.28215 3.96421 4.20901 4.0918C4.17291 4.09824 4.14369 4.11785 4.12132 4.15033C4.10422 4.21939 4.07012 4.27793 4.01902 4.32592C4.0047 4.36367 3.99981 4.40289 4.00441 4.44298C3.6491 4.88606 3.19119 5.15939 2.63063 5.26241C2.17308 5.27996 1.71518 5.29957 1.25686 5.32094C1.29553 6.05139 1.29553 6.78298 1.25686 7.51577C1.22222 7.5553 1.18324 7.58959 1.13994 7.61824C0.779461 7.63788 0.418944 7.63788 0.0584603 7.61824C0.0438467 7.60359 0.0292332 7.58894 0.0146197 7.57437C-0.00487323 5.43799 -0.00487323 3.30165 0.0146197 1.1653C0.0292332 1.15066 0.0438467 1.13603 0.0584603 1.1214C0.925605 1.10179 1.79272 1.10179 2.65986 1.1214C2.86689 1.15915 3.0715 1.20305 3.27368 1.25309ZM2.80601 3.97474C2.68839 4.09502 2.54225 4.15852 2.36757 4.16496C1.99732 4.18457 1.6271 4.18457 1.25686 4.16496C1.29571 3.51703 1.29571 2.86852 1.25686 2.21884C1.64622 2.1846 2.03594 2.17992 2.42603 2.20421C2.9245 2.28907 3.15834 2.5867 3.12753 3.09679C3.15798 3.44475 3.0508 3.7374 2.80601 3.97474Z" fill="#004D43"/>
<path id="Vector_3" opacity="0.955" fill-rule="evenodd" clip-rule="evenodd" d="M22.419 1.31163C22.3882 1.30723 22.359 1.31221 22.3312 1.32625C22.3266 3.36574 22.3316 5.40932 22.3458 7.45726C22.3684 7.4895 22.3927 7.4895 22.419 7.45726C22.4088 7.53099 22.3698 7.5846 22.302 7.61824C21.9754 7.64254 21.6539 7.63755 21.3375 7.60359C21.3404 7.52314 21.3111 7.50382 21.2498 7.54507C21.2309 7.49859 21.2162 7.44997 21.2059 7.39874C20.603 7.79877 19.9843 7.82341 19.3499 7.47191C19.076 7.27582 18.8665 7.0271 18.7215 6.72569C18.3515 5.7324 18.3515 4.73738 18.7215 3.74062C18.7463 3.70931 18.7707 3.68004 18.7945 3.65282C18.8036 3.68911 18.8182 3.68911 18.8383 3.65282C18.8525 3.62502 18.8574 3.59576 18.853 3.56503C19.3236 2.7301 20.0251 2.45208 20.9575 2.73098C21.0232 2.76141 21.0865 2.79566 21.1475 2.8334C21.1572 2.28703 21.167 1.74094 21.1767 1.19456C21.201 1.17027 21.2255 1.14569 21.2498 1.1214C21.6006 1.10179 21.9513 1.10179 22.302 1.1214C22.3728 1.16734 22.4119 1.23085 22.419 1.31163ZM20.3145 3.71136C20.6253 3.67448 20.9029 3.75262 21.1475 3.94547C21.1718 4.74558 21.167 5.5454 21.1329 6.34521C20.4917 6.84444 20.0483 6.70776 19.8029 5.9355C19.7451 5.44794 19.7451 4.96009 19.8029 4.47225C19.8443 4.299 19.9028 4.13336 19.9783 3.97474C20.0707 3.85739 20.1828 3.76959 20.3145 3.71136Z" fill="#004D43"/>
<path id="Vector_4" opacity="0.01" fill-rule="evenodd" clip-rule="evenodd" d="M3.27356 1.22363C3.31352 1.24372 3.31352 1.24372 3.27356 1.22363V1.22363Z" fill="#004A3F"/>
<path id="Vector_5" opacity="0.01" fill-rule="evenodd" clip-rule="evenodd" d="M28.1183 1.22363C28.1582 1.24372 28.1582 1.24372 28.1183 1.22363V1.22363Z" fill="#004A3E"/>
<path id="Vector_6" opacity="0.334" fill-rule="evenodd" clip-rule="evenodd" d="M22.4186 1.31136C22.4186 3.35991 22.4186 5.40847 22.4186 7.457C22.3924 7.48924 22.368 7.48924 22.3455 7.457C22.3312 5.40906 22.3263 3.36548 22.3309 1.32599C22.3586 1.31195 22.3879 1.30697 22.4186 1.31136Z" fill="#004C3C"/>
<path id="Vector_7" opacity="0.224" fill-rule="evenodd" clip-rule="evenodd" d="M4.23804 2.13086C4.30015 2.20677 4.33911 2.2947 4.35495 2.39464C4.278 2.32782 4.23903 2.23989 4.23804 2.13086Z" fill="#003D36"/>
<path id="Vector_8" opacity="0.01" fill-rule="evenodd" clip-rule="evenodd" d="M29.2583 2.21876C29.2487 2.24807 29.2291 2.26771 29.1998 2.27738C29.1934 2.24279 29.2031 2.21349 29.2291 2.18945C29.2469 2.19297 29.2565 2.20294 29.2583 2.21876Z" fill="#002F29"/>
<path id="Vector_9" opacity="0.943" fill-rule="evenodd" clip-rule="evenodd" d="M8.09634 3.36C8.13759 3.45306 8.1717 3.55051 8.19868 3.65265C8.21828 3.6746 8.24264 3.68455 8.27175 3.68191C8.45799 4.23034 8.5213 4.79633 8.46168 5.37928C8.43732 5.40357 8.41297 5.42816 8.38861 5.45245C7.57749 5.4861 6.76882 5.51039 5.96261 5.52561C5.91735 5.53498 5.89783 5.56424 5.90414 5.6134C5.93342 5.6134 5.96261 5.6134 5.99181 5.6134C6.06758 6.42228 6.50599 6.74915 7.30719 6.59382C7.47613 6.55691 7.64178 6.50805 7.80407 6.44749C7.91806 6.38545 8.035 6.33185 8.15481 6.28651C8.22534 6.28389 8.27889 6.3131 8.31554 6.37432C8.34047 6.65732 8.36483 6.94024 8.38861 7.223C8.35318 7.35845 8.26544 7.44127 8.12553 7.47171C7.56379 7.7088 6.97925 7.78696 6.37183 7.70586C5.77326 7.59374 5.32026 7.27685 5.01265 6.75471C4.94516 6.58031 4.87701 6.40476 4.80805 6.22797C4.7923 6.06848 4.76307 5.9125 4.72036 5.75973C4.66103 5.18994 4.69026 4.62425 4.80805 4.06236C4.85061 3.98832 4.88472 3.91018 4.91039 3.82824C5.00273 3.75771 5.05136 3.66026 5.05653 3.53559C5.49059 2.83235 6.12392 2.53472 6.95637 2.643C7.45751 2.69715 7.83745 2.93595 8.09634 3.36ZM5.99181 4.5306C5.99402 4.45129 6.00378 4.37345 6.02109 4.29648C6.02486 4.24614 6.03453 4.19756 6.05028 4.15015C6.22471 3.7144 6.52674 3.58271 6.95637 3.75508C7.1627 3.98452 7.25036 4.25288 7.21945 4.55987C6.81171 4.53118 6.4025 4.52123 5.99181 4.5306Z" fill="#004D43"/>
<path id="Vector_10" opacity="0.941" fill-rule="evenodd" clip-rule="evenodd" d="M12.9193 8.218C12.8901 8.218 12.8609 8.218 12.8317 8.218C12.8254 8.26596 12.8352 8.30982 12.8609 8.34968C12.8341 8.36048 12.8098 8.37513 12.7878 8.39354C12.7755 8.44797 12.7609 8.50157 12.744 8.55452C12.746 8.57679 12.7557 8.59135 12.7732 8.59839C12.595 9.02543 12.2832 9.30344 11.8378 9.4325C11.7989 9.45206 11.7989 9.47138 11.8378 9.49102C11.2728 9.51058 10.7077 9.51058 10.1426 9.49102C10.1815 9.47138 10.1815 9.45206 10.1426 9.4325C9.87812 9.37333 9.6248 9.28552 9.38264 9.16906C9.36435 9.14713 9.34967 9.12282 9.33876 9.0959C9.33761 8.95955 9.34737 8.8232 9.36804 8.6862C9.40691 8.53259 9.44586 8.37628 9.4849 8.218C9.51639 8.0828 9.59922 8.03885 9.73338 8.08632C10.1979 8.32832 10.6948 8.43545 11.2241 8.40819C11.3593 8.3748 11.4763 8.3113 11.5748 8.218C11.6295 8.20744 11.6733 8.17814 11.7064 8.13018C11.7511 8.02281 11.7657 7.91535 11.7502 7.80823C11.7648 7.67155 11.7698 7.53496 11.7648 7.39853C11.115 7.83106 10.4671 7.82639 9.82104 7.38388C9.68549 7.27299 9.57838 7.14131 9.49949 6.98884C9.50581 6.92501 9.48154 6.87615 9.42643 6.84251C9.41478 6.84922 9.40994 6.85888 9.41183 6.87181C9.30407 6.6704 9.20665 6.46056 9.11956 6.24254C9.12382 6.22005 9.1335 6.20044 9.14875 6.18405C8.99762 5.54607 8.99762 4.90722 9.14875 4.26719C9.17803 4.26719 9.20722 4.26719 9.2365 4.26719C9.24511 4.20163 9.23535 4.14311 9.20722 4.0916C9.23962 3.95464 9.28833 3.82792 9.35336 3.71116C9.41224 3.68247 9.45119 3.63389 9.4703 3.56483C9.46669 3.54698 9.45693 3.53732 9.44111 3.53556C9.91264 2.7217 10.6044 2.45334 11.5164 2.73077C11.6063 2.77203 11.6941 2.81593 11.7794 2.86247C11.8215 2.82237 11.8605 2.77847 11.8963 2.73077C12.2276 2.71117 12.5588 2.71117 12.8901 2.73077C12.9543 2.77613 12.9883 2.83964 12.9924 2.921C13.0119 4.41352 13.0119 5.90603 12.9924 7.39853C12.9894 7.6745 12.965 7.94784 12.9193 8.218ZM10.6395 6.46204C10.5903 6.38306 10.5416 6.30491 10.4933 6.22795C10.3383 5.67864 10.3091 5.1226 10.4057 4.55984C10.4057 4.53057 10.4057 4.50131 10.4057 4.47204C10.3987 4.43429 10.4085 4.40503 10.4349 4.38425C10.5166 3.83114 10.8284 3.6216 11.3702 3.75505C11.4909 3.81066 11.6078 3.87386 11.721 3.94528C11.7599 4.73543 11.7599 5.52558 11.721 6.31571C11.396 6.64233 11.0355 6.69119 10.6395 6.46204Z" fill="#004D43"/>
<path id="Vector_11" opacity="0.937" fill-rule="evenodd" clip-rule="evenodd" d="M13.7668 6.16938C13.796 6.16938 13.8252 6.16938 13.8545 6.16938C13.8545 6.13045 13.8545 6.09124 13.8545 6.05232C13.8252 6.05232 13.796 6.05232 13.7668 6.05232C13.7713 5.84014 13.8102 5.63529 13.8837 5.43775C13.913 5.43775 13.9422 5.43775 13.9715 5.43775C13.9802 5.36284 13.9705 5.29465 13.9422 5.2329C14.0294 5.10647 14.1269 4.98942 14.2344 4.88171C14.2363 4.89752 14.2459 4.90747 14.2637 4.91098C14.2989 4.87937 14.3184 4.84045 14.3222 4.79392C14.4408 4.69471 14.5674 4.60692 14.7021 4.53054C15.2093 4.37133 15.7257 4.33241 16.2513 4.41347C16.3318 4.06464 16.2051 3.83549 15.8713 3.72575C15.424 3.67921 14.9855 3.71843 14.556 3.8428C14.422 3.88729 14.3197 3.85305 14.2491 3.74038C14.215 3.4966 14.1809 3.25253 14.1468 3.00876C14.1597 2.92944 14.1986 2.86594 14.2637 2.81853C14.9978 2.60782 15.7383 2.57856 16.4851 2.73074C17.0586 2.94467 17.385 3.35906 17.4643 3.9745C17.4972 4.86211 17.5215 5.74972 17.5374 6.63762C17.6383 6.63648 17.7356 6.61716 17.8297 6.57911C17.8939 6.58934 17.9475 6.61864 17.9904 6.66692C18.0563 6.94665 18.0758 7.22933 18.0489 7.5156C18.0027 7.56062 17.9491 7.59491 17.8882 7.61799C17.6021 7.70989 17.3099 7.73919 17.0113 7.7058C16.762 7.65694 16.5915 7.5156 16.4997 7.28146C15.8177 7.8009 15.1015 7.85442 14.3514 7.44244C13.9685 7.10763 13.7736 6.68329 13.7668 6.16938ZM15.4914 5.3207C15.7665 5.3084 16.0393 5.32304 16.3098 5.36459C16.2858 5.68914 16.2711 6.01603 16.2659 6.34496C15.9474 6.65989 15.5869 6.72806 15.1844 6.54981C15.0091 6.19864 15.0091 5.84746 15.1844 5.49628C15.288 5.43454 15.3903 5.376 15.4914 5.3207Z" fill="#004D43"/>
<path id="Vector_12" opacity="0.937" fill-rule="evenodd" clip-rule="evenodd" d="M26.7448 3.4768C26.7562 3.59766 26.7854 3.71472 26.8325 3.82797C26.7804 3.89939 26.8 3.92864 26.8909 3.91577C26.919 3.96728 26.9287 4.0258 26.9201 4.09136C26.8734 4.11448 26.8538 4.1534 26.8617 4.20842C26.8909 4.20842 26.9201 4.20842 26.9494 4.20842C26.9409 5.01877 26.9506 5.82824 26.9786 6.63742C27.0838 6.63423 27.1862 6.61491 27.2855 6.5789C27.3893 6.60583 27.4478 6.67433 27.4609 6.78375C27.4711 6.98393 27.4857 7.18411 27.5048 7.38372C27.5164 7.4987 27.4679 7.57686 27.3586 7.61778C27.0312 7.72196 26.6998 7.7416 26.3648 7.6763C26.2464 7.63971 26.1491 7.57653 26.0725 7.4861C26.0807 7.38781 26.0418 7.31956 25.9556 7.28125C25.4024 7.70469 24.7886 7.81706 24.1141 7.61778C23.629 7.40565 23.3416 7.03983 23.2519 6.52039C23.1047 5.11652 23.738 4.39455 25.1517 4.35474C25.3216 4.37582 25.4921 4.39045 25.6633 4.39864C25.69 4.40947 25.7145 4.4241 25.7364 4.44254C25.7369 4.37523 25.732 4.30705 25.7218 4.23769C25.7474 4.24149 25.7669 4.23184 25.7802 4.20842C25.7647 4.15457 25.7453 4.10599 25.7218 4.06209C25.6357 3.89324 25.4993 3.78115 25.3126 3.72555C24.8649 3.67814 24.4265 3.71706 23.9973 3.8426C23.8776 3.87861 23.7753 3.85402 23.6903 3.76945C23.6702 3.5087 23.6361 3.25028 23.588 2.99392C23.605 2.92076 23.6441 2.86223 23.7049 2.81833C24.3983 2.6205 25.0998 2.58158 25.8094 2.70127C26.2525 2.80575 26.5644 3.06445 26.7448 3.4768ZM24.9618 5.3205C25.226 5.31318 25.4891 5.32312 25.751 5.34975C25.7559 5.68162 25.751 6.0132 25.7364 6.34476C25.449 6.61639 25.1129 6.70886 24.7279 6.62277C24.5374 6.47177 24.4595 6.27159 24.4941 6.02286C24.4556 5.65265 24.6116 5.41853 24.9618 5.3205Z" fill="#004D43"/>
<path id="Vector_13" opacity="0.935" fill-rule="evenodd" clip-rule="evenodd" d="M33.6135 3.27214C33.5995 3.35437 33.6287 3.41291 33.7012 3.44773C33.7722 3.55338 33.821 3.67044 33.8473 3.79891C33.7652 3.86505 33.7752 3.91363 33.8766 3.94524C33.9315 4.80212 33.9511 5.66046 33.935 6.52059C33.9032 6.52403 33.8839 6.54367 33.8766 6.57911C33.8871 6.63525 33.9067 6.64491 33.935 6.60833C34.0376 6.63558 34.1399 6.62592 34.2419 6.57911C34.2875 6.59458 34.3313 6.61422 34.3735 6.63763C34.4714 6.92292 34.5006 7.21558 34.4611 7.51561C34.4226 7.56414 34.3741 7.59843 34.315 7.61799C34.1043 7.67683 33.89 7.71079 33.672 7.72045C33.3186 7.73625 33.0605 7.58992 32.8974 7.28146C32.305 7.7491 31.6569 7.8419 30.9536 7.55947C30.823 7.48189 30.7061 7.38916 30.6029 7.28146C30.5441 7.17818 30.4906 7.07072 30.4421 6.9595C30.42 6.91392 30.3858 6.88462 30.3398 6.87177C30.1984 6.544 30.1496 6.20245 30.1937 5.84746C30.2399 5.78805 30.2791 5.71987 30.3106 5.64261C30.2972 5.6192 30.2778 5.60954 30.2522 5.61334C30.2595 5.5153 30.2887 5.42751 30.3398 5.34995C30.369 5.34995 30.3983 5.34995 30.4275 5.34995C30.4544 5.22675 30.4936 5.10969 30.5444 4.99878C30.676 4.82377 30.8414 4.68243 31.0413 4.57444C31.2453 4.50478 31.4449 4.43162 31.6405 4.35494C31.9714 4.35963 32.3029 4.35963 32.6343 4.35494C32.6466 4.39767 32.6712 4.4123 32.7074 4.39884C32.689 4.22266 32.6451 4.05205 32.5759 3.8867C32.4841 3.81383 32.3818 3.76028 32.2689 3.72575C31.8214 3.67921 31.383 3.71843 30.9536 3.8428C30.8037 3.89519 30.7014 3.85129 30.6467 3.71112C30.6333 3.46909 30.5991 3.22999 30.5444 2.99412C30.5725 2.91862 30.621 2.86008 30.6906 2.81853C31.4245 2.60782 32.1649 2.57856 32.912 2.73074C33.2174 2.81999 33.4513 3.00056 33.6135 3.27214ZM31.9182 5.3207C32.1523 5.31572 32.3861 5.3207 32.6197 5.33533C32.6524 5.34264 32.6817 5.35727 32.7074 5.37922C32.6746 5.70143 32.6697 6.02335 32.6928 6.34497C32.4166 6.61275 32.0901 6.70555 31.7136 6.62298C31.506 6.47959 31.4184 6.27974 31.4505 6.02306C31.4333 5.66631 31.5891 5.4322 31.9182 5.3207Z" fill="#004D43"/>
<path id="Vector_14" opacity="0.939" fill-rule="evenodd" clip-rule="evenodd" d="M38.7285 3.21377C38.7242 3.24451 38.7291 3.27377 38.7431 3.30157C38.7647 3.35483 38.7989 3.39376 38.8454 3.41864C38.8905 3.43444 38.9147 3.48331 38.9185 3.56496C38.9428 4.90822 38.9378 6.24971 38.9039 7.58894C38.5461 7.63657 38.1857 7.64622 37.8224 7.61815C37.7981 7.59385 37.7736 7.56929 37.7493 7.54499C37.7443 6.43761 37.7297 5.33549 37.7055 4.23805C37.7055 4.21845 37.7055 4.19913 37.7055 4.17953C37.7312 4.18333 37.7505 4.17367 37.7639 4.15026C37.74 4.12421 37.7107 4.11456 37.6763 4.121C37.7028 3.93487 37.6248 3.82279 37.4424 3.78445C37.0078 3.73938 36.6374 3.87107 36.3317 4.17953C36.3706 5.27579 36.3706 6.36829 36.3317 7.45717C36.2826 7.47714 36.2633 7.51634 36.2732 7.57429C36.27 7.59245 36.2604 7.60702 36.244 7.61815C35.8933 7.63779 35.5425 7.63779 35.1918 7.61815C35.1763 7.59794 35.157 7.58337 35.1333 7.57429C35.0991 5.97464 35.0945 4.37472 35.1187 2.7748C35.1333 2.76017 35.1479 2.74553 35.1625 2.7309C35.5037 2.7113 35.8445 2.7113 36.1856 2.7309C36.2098 2.75519 36.2344 2.77978 36.2586 2.80407C36.2683 2.89186 36.2782 2.97965 36.2879 3.06745C36.9332 2.58253 37.6301 2.49942 38.3778 2.8187C38.5324 2.91967 38.6493 3.05135 38.7285 3.21377Z" fill="#004D43"/>
<path id="Vector_15" opacity="0.885" fill-rule="evenodd" clip-rule="evenodd" d="M28.206 2.71623C28.5567 2.71125 28.9075 2.71623 29.2582 2.73086C29.3021 2.75515 29.3363 2.78939 29.3605 2.83329C29.3801 4.39399 29.3801 5.95499 29.3605 7.51573C29.3263 7.54994 29.2924 7.5839 29.2582 7.61811C28.9171 7.63775 28.5763 7.63775 28.2352 7.61811C28.1753 7.59094 28.1314 7.54699 28.1036 7.48643C28.0841 5.94504 28.0841 4.40394 28.1036 2.86255C28.1329 2.80929 28.1668 2.76042 28.206 2.71623Z" fill="#004D43"/>
<path id="Vector_16" opacity="0.01" fill-rule="evenodd" clip-rule="evenodd" d="M4.44267 3.21362C4.47263 3.22534 4.47751 3.24469 4.45728 3.27224C4.44372 3.25495 4.43884 3.23531 4.44267 3.21362Z" fill="#004840"/>
<path id="Vector_17" opacity="0.076" fill-rule="evenodd" clip-rule="evenodd" d="M33.6135 3.27222C33.6676 3.31707 33.6968 3.37568 33.7012 3.44808C33.6287 3.41319 33.5995 3.35458 33.6135 3.27222Z" fill="#003A32"/>
<path id="Vector_18" opacity="0.206" fill-rule="evenodd" clip-rule="evenodd" d="M38.7285 3.21362C38.7948 3.26462 38.8337 3.3332 38.8454 3.41879C38.7989 3.39387 38.7647 3.35489 38.7431 3.30154C38.729 3.2737 38.7241 3.24439 38.7285 3.21362Z" fill="#003E35"/>
<path id="Vector_19" opacity="0.175" fill-rule="evenodd" clip-rule="evenodd" d="M8.09631 3.35986C8.17701 3.45292 8.23548 3.56033 8.27173 3.68178C8.24261 3.68441 8.21826 3.67446 8.19866 3.65251C8.17168 3.55038 8.13756 3.45292 8.09631 3.35986Z" fill="#003932"/>
<path id="Vector_20" opacity="0.095" fill-rule="evenodd" clip-rule="evenodd" d="M9.4409 3.53564C9.45672 3.53741 9.46648 3.54708 9.47009 3.56495C9.45098 3.63412 9.41203 3.68278 9.35315 3.7115C9.35766 3.63911 9.38694 3.58049 9.4409 3.53564Z" fill="#00322D"/>
<path id="Vector_21" opacity="0.059" fill-rule="evenodd" clip-rule="evenodd" d="M18.8528 3.56494C18.8572 3.59571 18.8523 3.62502 18.8381 3.65286C18.818 3.68921 18.8034 3.68921 18.7943 3.65286C18.7922 3.60802 18.8117 3.57871 18.8528 3.56494Z" fill="#03201B"/>
<path id="Vector_22" opacity="0.072" fill-rule="evenodd" clip-rule="evenodd" d="M5.05654 3.53564C5.05137 3.66032 5.00274 3.75777 4.9104 3.8283C4.95928 3.72968 5.00799 3.63193 5.05654 3.53564Z" fill="#00342D"/>
<path id="Vector_23" opacity="0.056" fill-rule="evenodd" clip-rule="evenodd" d="M26.7446 3.47705C26.7628 3.48027 26.7773 3.48993 26.7884 3.50632C26.808 3.58446 26.8273 3.6623 26.8469 3.74044C26.8566 3.73078 26.8665 3.72083 26.8762 3.71117C26.8908 3.77878 26.8954 3.84696 26.8908 3.91602C26.7998 3.92891 26.7802 3.89964 26.8323 3.82823C26.7852 3.71498 26.756 3.59792 26.7446 3.47705Z" fill="#00453C"/>
<path id="Vector_24" opacity="0.067" fill-rule="evenodd" clip-rule="evenodd" d="M33.8472 3.79883C33.8435 3.85129 33.8531 3.90024 33.8764 3.94537C33.7751 3.91372 33.7651 3.86507 33.8472 3.79883Z" fill="#00332D"/>
<path id="Vector_25" opacity="0.333" fill-rule="evenodd" clip-rule="evenodd" d="M37.6764 4.12083C37.7108 4.11438 37.7401 4.12405 37.7641 4.15014C37.7506 4.17359 37.7313 4.18326 37.7056 4.17945C37.696 4.15981 37.686 4.14047 37.6764 4.12083Z" fill="#003530"/>
<path id="Vector_26" opacity="0.024" fill-rule="evenodd" clip-rule="evenodd" d="M6.05041 4.15015C6.03467 4.19763 6.02499 4.24628 6.02122 4.2967C6.00252 4.27911 5.99276 4.25478 5.99194 4.22342C5.99736 4.18297 6.01687 4.15865 6.05041 4.15015Z" fill="#002F28"/>
<path id="Vector_27" opacity="0.255" fill-rule="evenodd" clip-rule="evenodd" d="M25.7218 4.06226C25.7453 4.10622 25.7648 4.15487 25.7803 4.2088C25.7669 4.23225 25.7474 4.24192 25.7218 4.23811C25.7218 4.17949 25.7218 4.12087 25.7218 4.06226Z" fill="#003D37"/>
<path id="Vector_28" opacity="0.278" fill-rule="evenodd" clip-rule="evenodd" d="M26.92 4.09155C26.9473 4.12291 26.9572 4.16189 26.9493 4.20878C26.92 4.20878 26.8908 4.20878 26.8616 4.20878C26.8537 4.15369 26.8733 4.11471 26.92 4.09155Z" fill="#003D36"/>
<path id="Vector_29" opacity="0.708" fill-rule="evenodd" clip-rule="evenodd" d="M9.20715 4.09155C9.23528 4.14313 9.24504 4.20175 9.23643 4.2674C9.20715 4.2674 9.17796 4.2674 9.14868 4.2674C9.15967 4.20292 9.17919 4.14431 9.20715 4.09155Z" fill="#003C35"/>
<path id="Vector_30" opacity="0.01" fill-rule="evenodd" clip-rule="evenodd" d="M37.7059 4.23804C37.6857 4.25818 37.6857 4.25818 37.7059 4.23804V4.23804Z" fill="#004F44"/>
<path id="Vector_31" opacity="0.235" fill-rule="evenodd" clip-rule="evenodd" d="M4.20896 4.09155C4.16397 4.22383 4.09578 4.34089 4.00435 4.44274C3.99976 4.40264 4.00465 4.36343 4.01897 4.32567C4.07006 4.27768 4.10417 4.21915 4.12127 4.15008C4.14363 4.11759 4.17286 4.09799 4.20896 4.09155Z" fill="#004037"/>
<path id="Vector_32" opacity="0.01" fill-rule="evenodd" clip-rule="evenodd" d="M14.7028 4.53145C14.6827 4.49147 14.6827 4.49147 14.7028 4.53145V4.53145Z" fill="#004C42"/>
<path id="Vector_33" opacity="0.135" fill-rule="evenodd" clip-rule="evenodd" d="M10.4055 4.47192C10.4055 4.50123 10.4055 4.53054 10.4055 4.55985C10.3275 4.53054 10.3275 4.50123 10.4055 4.47192Z" fill="#00332D"/>
<path id="Vector_34" opacity="0.01" fill-rule="evenodd" clip-rule="evenodd" d="M18.4143 4.79395C18.4457 4.81593 18.4505 4.84523 18.4289 4.88187C18.4148 4.85402 18.4099 4.82471 18.4143 4.79395Z" fill="#004C43"/>
<path id="Vector_35" opacity="0.233" fill-rule="evenodd" clip-rule="evenodd" d="M14.3221 4.79395C14.3184 4.84054 14.2988 4.87952 14.2637 4.91118C14.2459 4.90766 14.2362 4.89769 14.2344 4.88187C14.2539 4.84289 14.2832 4.81358 14.3221 4.79395Z" fill="#00302A"/>
<path id="Vector_36" opacity="0.01" fill-rule="evenodd" clip-rule="evenodd" d="M18.4142 4.91113C18.4541 4.93122 18.4541 4.93122 18.4142 4.91113V4.91113Z" fill="#004D41"/>
<path id="Vector_37" opacity="0.403" fill-rule="evenodd" clip-rule="evenodd" d="M30.5445 4.99878C30.4936 5.1097 30.4544 5.22676 30.4275 5.34996C30.3983 5.34996 30.369 5.34996 30.3398 5.34996C30.3395 5.297 30.3542 5.24812 30.3837 5.20364C30.4378 5.1334 30.4916 5.06492 30.5445 4.99878Z" fill="#00443C"/>
<path id="Vector_38" opacity="0.01" fill-rule="evenodd" clip-rule="evenodd" d="M2.63037 5.26221C2.67033 5.28229 2.67033 5.28229 2.63037 5.26221V5.26221Z" fill="#00483F"/>
<path id="Vector_39" opacity="0.573" fill-rule="evenodd" clip-rule="evenodd" d="M13.9421 5.23291C13.9704 5.29475 13.9802 5.36304 13.9714 5.43808C13.9421 5.43808 13.9129 5.43808 13.8837 5.43808C13.9032 5.36979 13.9226 5.3012 13.9421 5.23291Z" fill="#00423A"/>
<path id="Vector_40" opacity="0.01" fill-rule="evenodd" clip-rule="evenodd" d="M18.4142 5.55493C18.4541 5.57501 18.4541 5.57501 18.4142 5.55493V5.55493Z" fill="#004B41"/>
<path id="Vector_41" opacity="0.122" fill-rule="evenodd" clip-rule="evenodd" d="M5.96258 5.52563C5.98038 5.55172 5.99014 5.58103 5.99178 5.61356C5.96258 5.61356 5.93339 5.61356 5.90411 5.61356C5.8978 5.56432 5.91731 5.53501 5.96258 5.52563Z" fill="#003C34"/>
<path id="Vector_42" opacity="0.01" fill-rule="evenodd" clip-rule="evenodd" d="M18.4143 5.61328C18.4457 5.63526 18.4505 5.66457 18.4289 5.70121C18.4148 5.67337 18.4099 5.64406 18.4143 5.61328Z" fill="#004C43"/>
<path id="Vector_43" opacity="0.19" fill-rule="evenodd" clip-rule="evenodd" d="M30.252 5.6136C30.2776 5.60979 30.297 5.61946 30.3104 5.64291C30.2789 5.72028 30.2397 5.78857 30.1935 5.84807C30.2105 5.76659 30.23 5.68833 30.252 5.6136Z" fill="#004138"/>
<path id="Vector_44" opacity="0.782" fill-rule="evenodd" clip-rule="evenodd" d="M13.7668 6.05225C13.796 6.05225 13.8252 6.05225 13.8545 6.05225C13.8545 6.09123 13.8545 6.1305 13.8545 6.16948C13.8252 6.16948 13.796 6.16948 13.7668 6.16948C13.7668 6.1305 13.7668 6.09123 13.7668 6.05225Z" fill="#003C34"/>
<path id="Vector_45" opacity="0.071" fill-rule="evenodd" clip-rule="evenodd" d="M10.4932 6.22803C10.5415 6.30511 10.5902 6.38338 10.6393 6.46247C10.6412 6.47542 10.6363 6.4851 10.6247 6.49182C10.5466 6.41912 10.5028 6.33117 10.4932 6.22803Z" fill="#003934"/>
<path id="Vector_46" opacity="0.504" fill-rule="evenodd" clip-rule="evenodd" d="M33.9349 6.52075C33.9349 6.55001 33.9349 6.57936 33.9349 6.60862C33.9066 6.64525 33.887 6.63558 33.8765 6.57936C33.8838 6.54387 33.9031 6.52419 33.9349 6.52075Z" fill="#003630"/>
<path id="Vector_47" opacity="0.063" fill-rule="evenodd" clip-rule="evenodd" d="M9.49944 6.98908C9.45638 6.96154 9.42719 6.92252 9.41177 6.87187C9.40989 6.85892 9.41473 6.84925 9.42637 6.84253C9.48148 6.87622 9.50575 6.92523 9.49944 6.98908Z" fill="#00362F"/>
<path id="Vector_48" opacity="0.135" fill-rule="evenodd" clip-rule="evenodd" d="M30.3398 6.87183C30.3858 6.88468 30.42 6.91389 30.4421 6.95956C30.4907 7.07078 30.5441 7.17815 30.6029 7.28152C30.4863 7.16506 30.3986 7.02839 30.3398 6.87183Z" fill="#00413A"/>
<path id="Vector_49" opacity="0.01" fill-rule="evenodd" clip-rule="evenodd" d="M8.41797 7.16455C8.45792 7.18464 8.45792 7.18464 8.41797 7.16455V7.16455Z" fill="#003D33"/>
<path id="Vector_50" opacity="0.01" fill-rule="evenodd" clip-rule="evenodd" d="M30.4275 7.16455C30.4674 7.18464 30.4674 7.18464 30.4275 7.16455V7.16455Z" fill="#00362E"/>
<path id="Vector_51" opacity="0.124" fill-rule="evenodd" clip-rule="evenodd" d="M25.9556 7.28149C26.0418 7.31985 26.0807 7.38821 26.0725 7.48665C25.9974 7.44034 25.9585 7.37206 25.9556 7.28149Z" fill="#00423A"/>
<path id="Vector_52" opacity="0.184" fill-rule="evenodd" clip-rule="evenodd" d="M36.3319 7.45703C36.3418 7.51506 36.3225 7.5544 36.2734 7.57432C36.2635 7.51629 36.2828 7.47703 36.3319 7.45703Z" fill="#003D36"/>
<path id="Vector_53" opacity="0.204" fill-rule="evenodd" clip-rule="evenodd" d="M21.3372 7.60361C21.3018 7.59107 21.2726 7.5714 21.2495 7.545C21.3108 7.5037 21.34 7.52304 21.3372 7.60361Z" fill="#00352E"/>
<path id="Vector_54" opacity="0.01" fill-rule="evenodd" clip-rule="evenodd" d="M6.72278 7.74976C6.76273 7.76985 6.76273 7.76985 6.72278 7.74976V7.74976Z" fill="#004E42"/>
<path id="Vector_55" opacity="0.203" fill-rule="evenodd" clip-rule="evenodd" d="M11.7499 7.80835C11.7654 7.91548 11.7508 8.02293 11.7061 8.13031C11.6731 8.17827 11.6293 8.20757 11.5746 8.21812C11.6499 8.08702 11.7083 7.95059 11.7499 7.80835Z" fill="#00433B"/>
<path id="Vector_56" opacity="0.639" fill-rule="evenodd" clip-rule="evenodd" d="M12.9193 8.21802C12.8939 8.35616 12.8452 8.48318 12.7732 8.59841C12.7557 8.59145 12.7461 8.5768 12.744 8.55454C12.7609 8.50159 12.7755 8.44799 12.7878 8.39356C12.8098 8.37515 12.8341 8.3605 12.8609 8.3497C12.8352 8.30992 12.8255 8.26598 12.8317 8.21802C12.8609 8.21802 12.8902 8.21802 12.9193 8.21802Z" fill="#00413A"/>
<path id="Vector_57" opacity="0.978" fill-rule="evenodd" clip-rule="evenodd" d="M37.5594 10.8519C38.6409 10.7887 39.1135 11.2958 38.977 12.3737C38.8907 12.7919 38.6423 13.06 38.2317 13.1785C37.7973 13.2929 37.3881 13.2344 37.004 13.0029C36.6357 12.6303 36.5139 12.1864 36.6387 11.6713C36.7871 11.2154 37.0941 10.942 37.5594 10.8519Z" fill="#BED72F"/>
<path id="Vector_58" opacity="0.988" fill-rule="evenodd" clip-rule="evenodd" d="M4.03369 11.0276C4.90543 10.9451 5.75305 11.0475 6.57664 11.3349C7.46469 11.7557 8.06391 12.4338 8.37422 13.3688C8.47353 13.6345 8.53684 13.9026 8.56423 14.1736C7.91359 14.3278 7.26574 14.4888 6.62052 14.6565C6.50464 14.2588 6.34875 13.8783 6.15283 13.5151C5.89501 13.0712 5.51015 12.8128 4.99826 12.7396C3.88526 12.5968 3.11069 13.0405 2.67453 14.0712C2.34322 15.0126 2.20193 15.9833 2.25071 16.983C2.20818 17.9754 2.32998 18.9459 2.61608 19.8949C3.03262 21.0673 3.86565 21.6429 5.11521 21.6216C5.63808 21.6104 6.14471 21.513 6.63511 21.3289C6.66431 20.4413 6.67407 19.5537 6.66431 18.6658C5.96282 18.6658 5.26134 18.6658 4.55982 18.6658C4.55982 18.139 4.55982 17.6123 4.55982 17.0855C5.95307 17.0855 7.34635 17.0855 8.73956 17.0855C8.74924 18.8874 8.73956 20.6871 8.71037 22.4849C7.04539 23.2554 5.31112 23.4699 3.50757 23.1287C2.07773 22.8091 1.09855 21.9654 0.570031 20.5973C0.259792 19.727 0.0844131 18.8294 0.0439019 17.9049C-0.0861931 16.4823 0.0794191 15.0969 0.540804 13.7493C1.15736 12.1315 2.32165 11.2243 4.03369 11.0276Z" fill="#BED72F"/>
<path id="Vector_59" opacity="0.985" fill-rule="evenodd" clip-rule="evenodd" d="M23.851 11.2615C24.5429 11.2615 25.2346 11.2615 25.9264 11.2615C25.9264 15.1927 25.9264 19.1241 25.9264 23.0553C25.3028 23.0553 24.6792 23.0553 24.0557 23.0553C24.0361 22.8112 24.0118 22.5671 23.9826 22.3236C23.125 23.1516 22.1165 23.4103 20.9574 23.0991C20.0764 22.7635 19.4675 22.1537 19.1306 21.2701C18.7765 20.1841 18.6596 19.072 18.7799 17.9339C18.8474 17.0188 19.13 16.1797 19.6275 15.4171C20.3988 14.3759 21.4267 13.9708 22.7112 14.2026C23.1235 14.2799 23.4986 14.4408 23.8365 14.6855C23.851 13.5442 23.856 12.4028 23.851 11.2615ZM22.2727 15.739C22.8543 15.7229 23.3706 15.8985 23.8219 16.2658C23.856 17.8265 23.8608 19.3872 23.8365 20.9482C23.3324 21.4805 22.7235 21.6708 22.0097 21.5189C21.7478 21.4129 21.5384 21.242 21.3812 21.0067C21.0843 20.4715 20.9284 19.8958 20.9136 19.2801C20.8437 18.4015 20.9411 17.5432 21.2058 16.7047C21.4029 16.1999 21.7586 15.8781 22.2727 15.739Z" fill="#BED72F"/>
<path id="Vector_60" opacity="0.985" fill-rule="evenodd" clip-rule="evenodd" d="M12.7439 14.1589C13.2408 14.1539 13.7377 14.1589 14.2345 14.1735C14.8412 14.2107 15.3965 14.3959 15.9006 14.7295C16.291 15.0719 16.5492 15.4963 16.6752 16.0026C16.7637 16.3288 16.8222 16.6605 16.8506 16.9976C16.8871 18.4117 16.9066 19.826 16.909 21.241C16.9641 21.5638 17.1541 21.7052 17.479 21.6653C17.6267 21.6358 17.7729 21.6016 17.9174 21.5629C17.9469 22.0239 17.9956 22.4824 18.0635 22.9384C17.5427 23.1667 16.9971 23.2594 16.4267 23.2164C15.7935 23.1848 15.3795 22.8679 15.1844 22.2653C14.2383 23.1082 13.1422 23.3961 11.8962 23.1286C11.0639 22.8807 10.5232 22.3393 10.274 21.5044C10.0685 20.6633 10.1074 19.8342 10.3908 19.0169C10.7687 18.2293 11.3874 17.7465 12.2469 17.5682C13.1344 17.3912 14.0209 17.3959 14.9068 17.5829C14.9195 17.2338 14.8756 16.8922 14.7752 16.5586C14.6667 16.2744 14.4766 16.0646 14.2053 15.9294C13.7341 15.75 13.247 15.6915 12.7439 15.7538C12.201 15.8097 11.67 15.9221 11.1509 16.0904C11.1362 16.0807 11.1216 16.0707 11.107 16.0611C11.0207 15.5578 10.9331 15.0553 10.8439 14.5539C11.4657 14.3485 12.099 14.2168 12.7439 14.1589ZM13.5623 18.7242C14.0211 18.6984 14.4643 18.7669 14.8922 18.9291C14.9117 19.5925 14.9117 20.2556 14.8922 20.9191C14.4149 21.4628 13.8157 21.7019 13.0946 21.6361C12.7234 21.567 12.4652 21.3572 12.32 21.0069C12.1214 20.4336 12.1604 19.8775 12.4369 19.3388C12.7229 18.9688 13.098 18.764 13.5623 18.7242Z" fill="#BED72F"/>
<path id="Vector_61" opacity="0.984" fill-rule="evenodd" clip-rule="evenodd" d="M30.1644 14.1589C30.6614 14.1539 31.1583 14.1589 31.6551 14.1735C32.2748 14.2177 32.8398 14.4129 33.3505 14.7588C33.7223 15.098 33.9707 15.5127 34.0958 16.0026C34.1826 16.3391 34.2411 16.6804 34.2711 17.0269C34.3074 18.4312 34.327 19.836 34.3296 21.241C34.3623 21.5178 34.5185 21.6642 34.7973 21.68C34.9633 21.6615 35.1241 21.6223 35.2796 21.5629C35.2968 21.5691 35.3114 21.5787 35.3235 21.5921C35.3836 22.0496 35.4228 22.5082 35.4403 22.9676C34.811 23.2176 34.163 23.2808 33.4966 23.1578C33.0444 23.0171 32.7471 22.7197 32.6051 22.2653C31.5672 23.1775 30.3834 23.4358 29.0537 23.0408C28.4215 22.7786 27.9881 22.3249 27.753 21.68C27.5008 20.8413 27.5008 20.0025 27.753 19.1632C28.1052 18.2914 28.7437 17.7597 29.6676 17.5682C30.5454 17.3903 31.4222 17.3953 32.2982 17.5829C32.3552 17.1387 32.2821 16.7192 32.079 16.3245C31.7951 15.9847 31.4298 15.7945 30.9829 15.7538C30.1571 15.7076 29.3534 15.8196 28.5715 16.0904C28.5569 16.0807 28.5423 16.0707 28.5277 16.0611C28.4425 15.563 28.3549 15.0655 28.2646 14.5686C28.5262 14.4536 28.7989 14.3707 29.083 14.3198C29.446 14.2537 29.8064 14.2001 30.1644 14.1589ZM30.9829 18.7242C31.4318 18.7064 31.8702 18.7649 32.2982 18.8998C32.3032 19.5828 32.2982 20.2656 32.2836 20.9483C31.8106 21.4751 31.2211 21.7046 30.5153 21.6361C30.144 21.567 29.8859 21.3572 29.7406 21.0069C29.5539 20.4722 29.5734 19.9454 29.7991 19.4266C30.0803 19.0004 30.4749 18.7664 30.9829 18.7242Z" fill="#BED72F"/>
<path id="Vector_62" opacity="0.988" fill-rule="evenodd" clip-rule="evenodd" d="M36.7701 14.3052C37.4619 14.3052 38.1535 14.3052 38.8454 14.3052C38.8454 17.222 38.8454 20.1386 38.8454 23.0554C38.1535 23.0554 37.4619 23.0554 36.7701 23.0554C36.7701 20.1386 36.7701 17.222 36.7701 14.3052Z" fill="#BED72F"/>
</g>
</g>
</svg>
