<svg width="92" height="24" viewBox="0 0 92 24" fill="none" xmlns="http://www.w3.org/2000/svg">
<g id="Product=Tabungan Emas, Enabled=True, Align=Left">
<g id="Group 202">
<path id="Vector" d="M2.36159 8.24399H0V6.43335H6.76043V8.24399H4.35856V15.9668H2.36159V8.24399Z" fill="#005143"/>
<path id="Vector_2" d="M12.1676 14.5211C12.1576 15.0945 12.1863 15.6679 12.2535 16.236H10.5689L10.4591 15.5332H10.4212C10.2077 15.8191 9.94236 16.0452 9.6446 16.1948C9.34684 16.3444 9.02429 16.4137 8.70068 16.3976C7.48515 16.3976 6.76062 15.3598 6.76062 14.2353C6.76062 12.4033 8.15778 11.5225 10.2875 11.5365V11.4358C10.2875 11.061 10.1138 10.5268 9.19368 10.5268C8.61022 10.5343 8.03826 10.7183 7.53305 11.061L7.18975 9.65532C7.91326 9.22755 8.71507 9.0144 9.52501 9.0345C11.521 9.0345 12.1676 10.419 12.1676 12.08V14.5211ZM10.3473 12.9047C9.36533 12.8906 8.60288 13.1647 8.60288 14.0151C8.59629 14.1294 8.61102 14.244 8.64604 14.3508C8.68107 14.4577 8.73555 14.5544 8.80568 14.634C8.8758 14.7136 8.95989 14.7744 9.05207 14.8119C9.14425 14.8495 9.2423 14.863 9.33939 14.8515C9.55275 14.8527 9.76112 14.7758 9.93539 14.6313C10.1097 14.4868 10.2411 14.282 10.3114 14.0456C10.3358 13.9219 10.3478 13.7953 10.3473 13.6684V12.9047Z" fill="#005143"/>
<path id="Vector_3" d="M13.5731 6H15.5967V10.0243H15.6226C16.0096 9.41761 16.6885 9.02876 17.5921 9.02876C19.1509 9.02876 20.2945 10.4342 20.2816 12.5916C20.2751 15.1355 18.7942 16.398 17.3024 16.398C16.9136 16.4156 16.5275 16.3191 16.1851 16.1188C15.8426 15.9184 15.5564 15.6216 15.3567 15.2596H15.3308L15.2508 16.2388H13.5212C13.5493 15.7703 13.5753 14.927 13.5753 14.1306L13.5731 6ZM15.5967 13.2405C15.5953 13.3713 15.6084 13.5018 15.6356 13.6293C15.6959 13.9209 15.8452 14.182 16.0594 14.3703C16.2736 14.5586 16.5402 14.6632 16.816 14.667C17.6808 14.667 18.2148 13.9455 18.2148 12.6783C18.2148 11.582 17.7608 10.7153 16.816 10.7153C16.5353 10.7262 16.266 10.8387 16.0513 11.0349C15.8365 11.2311 15.6886 11.4996 15.6313 11.7975C15.6049 11.9299 15.5919 12.065 15.5924 12.2004L15.5967 13.2405Z" fill="#005143"/>
<path id="Vector_4" d="M26.9983 14.0698C26.9983 14.9571 27.0212 15.6777 27.0441 16.2453H25.4927L25.4106 15.2904H25.3743C25.1815 15.6431 24.9142 15.9306 24.5987 16.1249C24.2832 16.3191 23.9303 16.4134 23.5746 16.3984C22.411 16.3984 21.5513 15.5381 21.5513 13.4459V9.46655H23.351V13.1126C23.351 14.0968 23.6223 14.6891 24.2452 14.6891C24.4401 14.6886 24.6303 14.6177 24.7902 14.4861C24.95 14.3544 25.0718 14.1683 25.1393 13.9527C25.1842 13.8086 25.2044 13.6555 25.1985 13.5022V9.46655H26.9983V14.0698Z" fill="#005143"/>
<path id="Vector_5" d="M28.7867 11.3491C28.7867 10.5045 28.7581 9.77246 28.7317 9.18683H30.5202L30.6148 10.1148H30.6544C30.8809 9.77481 31.1865 9.49792 31.5437 9.30916C31.9009 9.1204 32.2984 9.02572 32.7003 9.03366C34.0554 9.03366 35.0696 9.94814 35.0696 11.946V15.9666H33.0105V12.2028C33.0105 11.3289 32.7135 10.732 31.9677 10.732C31.734 10.7339 31.5068 10.8119 31.3193 10.9549C31.1318 11.0979 30.9937 11.2983 30.925 11.5271C30.8681 11.6966 30.8406 11.875 30.8436 12.0542V15.9666H28.7867V11.3491Z" fill="#005143"/>
<path id="Vector_6" d="M42.2035 15.0662C42.2035 16.3873 41.9601 17.4689 41.255 18.158C40.5644 18.8037 39.6284 18.9999 38.707 18.9999C37.8874 18.9999 37.0159 18.8174 36.4522 18.466L36.837 16.8505C37.3944 17.1862 38.0191 17.365 38.6549 17.3708C39.5785 17.3708 40.2815 16.8231 40.2815 15.559V15.1027H40.2566C40.063 15.3925 39.8076 15.626 39.5129 15.7827C39.2181 15.9394 38.8929 16.0146 38.5655 16.0017C37.0159 16.0017 35.9155 14.6327 35.9155 12.643C35.9155 10.4388 37.2218 9.0332 38.759 9.0332C39.6159 9.0332 40.1547 9.43936 40.475 10.003H40.4999L40.5644 9.18836H42.2534C42.2285 9.62418 42.2035 10.1992 42.2035 11.2237V15.0662ZM40.2566 11.9904C40.2582 11.8575 40.2449 11.7249 40.2171 11.5956C40.1691 11.3314 40.0394 11.0935 39.8498 10.9222C39.6603 10.7509 39.4226 10.6567 39.177 10.6555C38.4719 10.6555 37.8957 11.3583 37.8957 12.6087C37.8957 13.6332 38.3575 14.4341 39.177 14.4341C39.4117 14.4345 39.6398 14.3489 39.8251 14.1911C40.0105 14.0332 40.1426 13.812 40.2004 13.5625C40.2491 13.3804 40.2708 13.1909 40.2649 13.0012L40.2566 11.9904Z" fill="#005143"/>
<path id="Vector_7" d="M49.3454 14.5211C49.3346 15.0945 49.3655 15.6679 49.4378 16.236H47.6243L47.5062 15.5332H47.4653C47.2355 15.8191 46.9499 16.0452 46.6293 16.1948C46.3088 16.3444 45.9615 16.4137 45.6131 16.3976C44.3046 16.3976 43.5225 15.3598 43.5225 14.2353C43.5225 12.4033 45.0265 11.5225 47.3214 11.5365V11.4358C47.3214 11.061 47.1344 10.5268 46.1439 10.5268C45.5158 10.5343 44.9 10.7183 44.3562 11.061L43.9866 9.65532C44.7655 9.22755 45.6286 9.0144 46.5006 9.0345C48.6493 9.0345 49.3454 10.419 49.3454 12.08V14.5211ZM47.3858 12.9047C46.3287 12.8906 45.5079 13.1647 45.5079 14.0151C45.5008 14.1294 45.5166 14.244 45.5543 14.3508C45.592 14.4577 45.6507 14.5544 45.7262 14.634C45.8017 14.7136 45.8922 14.7744 45.9914 14.8119C46.0907 14.8495 46.1962 14.863 46.3007 14.8515C46.5304 14.8527 46.7547 14.7758 46.9423 14.6313C47.13 14.4868 47.2715 14.282 47.3471 14.0456C47.3734 13.9219 47.3864 13.7953 47.3858 13.6684V12.9047Z" fill="#005143"/>
<path id="Vector_8" d="M50.7542 11.3491C50.7542 10.5045 50.7296 9.77242 50.7029 9.18679H52.3716L52.4598 10.1148H52.4988C52.71 9.7751 52.9948 9.49841 53.3277 9.30966C53.6606 9.12092 54.031 9.02605 54.4056 9.03362C55.67 9.03362 56.6183 9.94811 56.6183 11.946V15.9666H54.6971V12.2028C54.6971 11.3288 54.42 10.732 53.7242 10.732C53.5047 10.7319 53.2909 10.8091 53.1143 10.9522C52.9377 11.0953 52.8076 11.2968 52.7431 11.5271C52.6891 11.6963 52.6633 11.8749 52.6671 12.0541V15.9666H50.746L50.7542 11.3491Z" fill="#005143"/>
<path id="Vector_9" d="M65.9689 11.9394H62.8002V14.1992H66.3383V15.967H60.8455V6.43359H66.1598V8.20142H62.8002V10.183H65.9689V11.9394Z" fill="#005143"/>
<path id="Vector_10" d="M67.6592 11.3502C67.6592 10.5058 67.6316 9.77392 67.6061 9.18844H69.2814L69.3728 10.1027H69.4238C69.6323 9.76293 69.9202 9.48607 70.2596 9.29903C70.599 9.11199 70.9783 9.02114 71.3607 9.03531C71.7261 9.01718 72.0881 9.11651 72.3992 9.32027C72.7104 9.52403 72.956 9.82268 73.104 10.177H73.1295C73.3467 9.84566 73.6279 9.56702 73.9544 9.35958C74.3218 9.1355 74.7404 9.02328 75.1641 9.03531C76.393 9.03531 77.3242 9.94957 77.3242 11.974V15.9666H75.3853V12.2803C75.3853 11.2939 75.0855 10.7265 74.4434 10.7265C74.237 10.7304 74.0371 10.8036 73.8724 10.9356C73.7078 11.0675 73.5869 11.2513 73.5271 11.4606C73.4741 11.636 73.4476 11.8191 73.4484 12.0033V15.9666H71.5116V12.1677C71.5116 11.3097 71.2225 10.7265 70.5953 10.7265C70.3847 10.7354 70.1819 10.8137 70.0153 10.9506C69.8488 11.0874 69.7267 11.276 69.6662 11.4899C69.6081 11.6585 69.5814 11.8374 69.5875 12.0168V15.9666H67.6592V11.3502Z" fill="#005143"/>
<path id="Vector_11" d="M84.4074 14.5211C84.3958 15.0945 84.4289 15.6679 84.5064 16.236H82.564L82.4375 15.5332H82.3914C82.1453 15.8191 81.8393 16.0452 81.496 16.1948C81.1527 16.3444 80.7808 16.4137 80.4077 16.3976C79.0038 16.3976 78.1685 15.3598 78.1685 14.2353C78.1685 12.4033 79.7794 11.5224 82.2349 11.5365V11.4358C82.2349 11.0609 82.037 10.5268 80.9738 10.5268C80.3018 10.534 79.643 10.718 79.0614 11.0609L78.6632 9.65528C79.4976 9.22787 80.422 9.01473 81.3558 9.03446C83.6572 9.03446 84.4028 10.419 84.4028 12.08L84.4074 14.5211ZM82.3109 12.9046C81.1763 12.8906 80.2972 13.1647 80.2972 14.0151C80.2896 14.1296 80.3066 14.2444 80.3471 14.3515C80.3876 14.4585 80.4506 14.5553 80.5318 14.635C80.6129 14.7147 80.7101 14.7753 80.8167 14.8127C80.9233 14.8501 81.0366 14.8633 81.1487 14.8514C81.3945 14.8529 81.6345 14.776 81.8351 14.6315C82.0358 14.4869 82.1868 14.282 82.2672 14.0456C82.296 13.922 82.3107 13.7954 82.3109 13.6684V12.9046Z" fill="#005143"/>
<path id="Vector_12" d="M85.6929 14.3255C86.1989 14.6453 86.7623 14.8271 87.3394 14.8567C87.9168 14.8567 88.1555 14.6227 88.1555 14.267C88.1555 13.9112 87.9678 13.7333 87.2517 13.4595C85.9826 12.9704 85.493 12.177 85.5052 11.3531C85.5052 10.0285 86.4845 9.03379 88.0046 9.03379C88.6012 9.02304 89.1928 9.16036 89.7388 9.43634L89.4001 10.9506C88.9891 10.6998 88.5332 10.5612 88.0678 10.5457C87.6026 10.5457 87.3394 10.7634 87.3394 11.1238C87.3394 11.4842 87.5781 11.627 88.329 11.9312C89.4981 12.3993 89.9877 13.071 90 14.1078C90 15.4184 89.0961 16.3991 87.3374 16.3991C86.6503 16.4137 85.9699 16.2412 85.3522 15.8959L85.6929 14.3255Z" fill="#005143"/>
</g>
</g>
</svg>
